<?xml version="1.0" encoding="UTF-8" standalone="no"?>
<svg
   xmlns:dc="http://purl.org/dc/elements/1.1/"
   xmlns:cc="http://creativecommons.org/ns#"
   xmlns:rdf="http://www.w3.org/1999/02/22-rdf-syntax-ns#"
   xmlns:svg="http://www.w3.org/2000/svg"
   xmlns="http://www.w3.org/2000/svg"
   version="1.1"
   id="svg2"
   viewBox="0 0 128.00001 128.00001"
   height="128.00002"
   width="128.00002">
  <defs
     id="defs4" />
  <metadata
     id="metadata7">
    <rdf:RDF>
      <cc:Work
         rdf:about="">
        <dc:format>image/svg+xml</dc:format>
        <dc:type
           rdf:resource="http://purl.org/dc/dcmitype/StillImage" />
        <dc:title></dc:title>
      </cc:Work>
    </rdf:RDF>
  </metadata>
  <g
     transform="translate(-235.17023,-531.74524)"
     id="layer1">
    <circle
       r="63.218094"
       cy="595.74524"
       cx="299.17023"
       id="path4136"
       style="opacity:1;fill:#feff75;fill-opacity:1;stroke:#000000;stroke-width:1.56381595;stroke-linecap:round;stroke-linejoin:round;stroke-miterlimit:4;stroke-dasharray:none;stroke-opacity:1" />
    <path
       id="path4142"
       d="m 263.92959,608.20216 c 0,0 20.53422,26.89786 35.2812,26.69929 14.24529,-0.19182 33.37412,-26.69929 33.37412,-26.69929 z"
       style="fill:#000000;fill-opacity:1;fill-rule:evenodd;stroke:#000000;stroke-width:7.8190794;stroke-linecap:round;stroke-linejoin:round;stroke-miterlimit:4;stroke-dasharray:none;stroke-opacity:1" />
    <path
       style="fill:none;fill-opacity:1;fill-rule:evenodd;stroke:#000000;stroke-width:4.31222916;stroke-linecap:round;stroke-linejoin:round;stroke-miterlimit:4;stroke-dasharray:none;stroke-opacity:1"
       d="m 286.47719,580.13491 c 0,0 -1.44961,-10.99075 -5.48983,-13.91068 -3.26214,-2.35759 -8.58076,-2.71599 -12.05527,-0.68434 -4.57366,2.67436 -6.99725,14.27142 -6.99725,14.27142"
       id="path9098" />
    <path
       id="path7407"
       d="m 261.59411,575.77702 -19.61087,32.8772 c 0,0 -2.62667,20.89412 4.91892,22.90307 6.95174,1.85085 14.42384,-16.05378 14.42384,-16.05378 z"
       style="fill:#7affff;fill-opacity:1;fill-rule:evenodd;stroke:#000000;stroke-width:1.56381595;stroke-linecap:butt;stroke-linejoin:miter;stroke-miterlimit:4;stroke-dasharray:none;stroke-opacity:1" />
    <path
       id="path10717"
       d="m 336.15385,579.19169 c 0,0 -1.44961,-10.99075 -5.48984,-13.91068 -3.26214,-2.35759 -8.58076,-2.71599 -12.05526,-0.68434 -4.57366,2.67436 -6.99726,14.27142 -6.99726,14.27142"
       style="fill:none;fill-opacity:1;fill-rule:evenodd;stroke:#000000;stroke-width:4.31222916;stroke-linecap:round;stroke-linejoin:round;stroke-miterlimit:4;stroke-dasharray:none;stroke-opacity:1" />
    <path
       style="fill:#7affff;fill-opacity:1;fill-rule:evenodd;stroke:#000000;stroke-width:1.56381595;stroke-linecap:butt;stroke-linejoin:miter;stroke-miterlimit:4;stroke-dasharray:none;stroke-opacity:1"
       d="m 337.03752,577.03466 22.44056,31.61956 c 0,0 2.41389,20.21948 -4.91892,22.90307 -6.45073,2.36078 -16.31029,-12.59528 -16.31029,-12.59528 z"
       id="path7679" />
  </g>
</svg>
